<svg xmlns="http://www.w3.org/2000/svg" width="151.96" height="164.64" viewBox="0 0 151.96 164.64"><path d="M156.92,21.68H122.38a26,26,0,1,0,21.67,11.63h12.87Zm-20.16,26a14.38,14.38,0,1,1-14.38-14.38A14.4,14.4,0,0,1,136.76,47.69Z" transform="translate(-52.57 -21.68)" fill="#333"/><rect x="102.41" y="91.87" width="57.78" height="11.64" transform="translate(-79.86 116.4) rotate(-50.94)" fill="#333"/><path d="M61.42,178.78a7.68,7.68,0,0,1-3.54-.82,9.07,9.07,0,0,1-2.82-2.16,10,10,0,0,1-1.84-3,9.7,9.7,0,0,1-.65-3.47,10.26,10.26,0,0,1,.62-3.56,9.55,9.55,0,0,1,1.75-3,8.54,8.54,0,0,1,2.71-2.13,7.54,7.54,0,0,1,3.45-.79,7.28,7.28,0,0,1,2.32.35,8.74,8.74,0,0,1,2,1,10.26,10.26,0,0,1,1.71,1.45,18.08,18.08,0,0,1,1.46,1.79v-4.28h.7V179.2a6.9,6.9,0,0,1-.67,3.15,6.51,6.51,0,0,1-1.8,2.24,8,8,0,0,1-2.61,1.31,11,11,0,0,1-3,.42,9.25,9.25,0,0,1-5.1-1.2,8.32,8.32,0,0,1-2.87-3.19l.67-.21a6.68,6.68,0,0,0,3.1,3,10,10,0,0,0,4.2.9,9.84,9.84,0,0,0,2.86-.4A6.89,6.89,0,0,0,66.43,184,5.88,5.88,0,0,0,68,182a6.19,6.19,0,0,0,.59-2.78v-4.6a9.82,9.82,0,0,1-3.14,3,8.15,8.15,0,0,1-2,.87A7.44,7.44,0,0,1,61.42,178.78Zm0-.71a6.81,6.81,0,0,0,2.57-.51,8.79,8.79,0,0,0,2.24-1.33,8.26,8.26,0,0,0,1.65-1.81,4.12,4.12,0,0,0,.73-2v-6.62a7.27,7.27,0,0,0-1.23-2.14A9.11,9.11,0,0,0,65.6,162a8.21,8.21,0,0,0-2.16-1.12,7.12,7.12,0,0,0-2.34-.41,6.83,6.83,0,0,0-3.33.8,8,8,0,0,0-2.44,2,9.36,9.36,0,0,0-1.52,2.84,9.57,9.57,0,0,0-.53,3.13,8.82,8.82,0,0,0,.63,3.31,9.7,9.7,0,0,0,1.74,2.8,8.35,8.35,0,0,0,2.58,1.94A7.11,7.11,0,0,0,61.42,178.07Z" transform="translate(-52.57 -21.68)" fill="#333"/><path d="M84.54,178.78a7.88,7.88,0,0,1-3.42-.76,9,9,0,0,1-2.81-2.09,10.11,10.11,0,0,1-1.91-3.08,10.21,10.21,0,0,1,0-7.38,9.39,9.39,0,0,1,1.86-3,8.8,8.8,0,0,1,2.76-2,8.35,8.35,0,0,1,6.83,0,8.69,8.69,0,0,1,2.8,2,9.74,9.74,0,0,1,1.89,3,9.54,9.54,0,0,1,.71,3.71v.39H76.4a9.83,9.83,0,0,0,.83,3.31A9.11,9.11,0,0,0,79,175.63a8.37,8.37,0,0,0,2.53,1.79,7.26,7.26,0,0,0,3,.65,7.67,7.67,0,0,0,2.08-.28,8.32,8.32,0,0,0,1.89-.8,7,7,0,0,0,1.56-1.22,5.6,5.6,0,0,0,1.06-1.56l.67.18a5.9,5.9,0,0,1-1.11,1.75,7.67,7.67,0,0,1-1.7,1.38,8.85,8.85,0,0,1-2.13.92A8.1,8.1,0,0,1,84.54,178.78Zm7.93-9.84a9.9,9.9,0,0,0-.78-3.4,9,9,0,0,0-1.75-2.68,8.12,8.12,0,0,0-2.5-1.75,7.56,7.56,0,0,0-6.09,0,8.09,8.09,0,0,0-2.49,1.77,8.49,8.49,0,0,0-1.72,2.69,10.29,10.29,0,0,0-.74,3.37Z" transform="translate(-52.57 -21.68)" fill="#333"/><path d="M106.6,178.78a7.73,7.73,0,0,1-3.4-.76,9,9,0,0,1-2.78-2.06,9.88,9.88,0,0,1-2.57-6.67,9.82,9.82,0,0,1,2.59-6.69,9.14,9.14,0,0,1,2.79-2.07,7.83,7.83,0,0,1,6.73,0,9,9,0,0,1,2.78,2.07,10.21,10.21,0,0,1,1.89,3,9.51,9.51,0,0,1,.71,3.66,9.88,9.88,0,0,1-2.57,6.67A8.91,8.91,0,0,1,110,178,7.79,7.79,0,0,1,106.6,178.78Zm-8-9.42a9.25,9.25,0,0,0,2.35,6.14,8.19,8.19,0,0,0,2.53,1.88,7.19,7.19,0,0,0,3.12.69,7.07,7.07,0,0,0,3.1-.71,8.49,8.49,0,0,0,2.58-1.91,8.87,8.87,0,0,0,1.76-2.8,9.13,9.13,0,0,0,.63-3.4,9,9,0,0,0-.63-3.36,9.44,9.44,0,0,0-1.74-2.8,8.33,8.33,0,0,0-2.57-1.91,7.1,7.1,0,0,0-6.19,0,8.24,8.24,0,0,0-2.57,1.93,9.36,9.36,0,0,0-1.73,2.83A9.16,9.16,0,0,0,98.56,169.36Z" transform="translate(-52.57 -21.68)" fill="#333"/><path d="M129.22,178.78a7.74,7.74,0,0,1-3.54-.82,9,9,0,0,1-2.81-2.16,9.85,9.85,0,0,1-1.85-3,9.7,9.7,0,0,1-.65-3.47,10.5,10.5,0,0,1,.62-3.56,9.74,9.74,0,0,1,1.75-3,8.65,8.65,0,0,1,2.71-2.13,7.54,7.54,0,0,1,3.45-.79,7.28,7.28,0,0,1,2.32.35,8.74,8.74,0,0,1,2,1,9.94,9.94,0,0,1,1.72,1.45,18,18,0,0,1,1.45,1.79v-4.28h.71V179.2a6.9,6.9,0,0,1-.68,3.15,6.4,6.4,0,0,1-1.8,2.24,8,8,0,0,1-2.6,1.31,11,11,0,0,1-3,.42,9.29,9.29,0,0,1-5.1-1.2,8.4,8.4,0,0,1-2.87-3.19l.67-.21a6.68,6.68,0,0,0,3.1,3,10.35,10.35,0,0,0,7.07.5,6.93,6.93,0,0,0,2.35-1.23,5.76,5.76,0,0,0,1.59-2,6.19,6.19,0,0,0,.59-2.78v-4.6a9.39,9.39,0,0,1-1.4,1.68,10.08,10.08,0,0,1-1.73,1.33,8.22,8.22,0,0,1-2,.87A7.44,7.44,0,0,1,129.22,178.78Zm0-.71a6.81,6.81,0,0,0,2.57-.51,8.68,8.68,0,0,0,2.25-1.33,8,8,0,0,0,1.64-1.81,4.12,4.12,0,0,0,.73-2v-6.62a7.24,7.24,0,0,0-1.22-2.14A9.16,9.16,0,0,0,133.4,162a8.21,8.21,0,0,0-2.16-1.12,7.12,7.12,0,0,0-2.34-.41,6.83,6.83,0,0,0-3.33.8,8.09,8.09,0,0,0-2.44,2,9.36,9.36,0,0,0-1.52,2.84,9.57,9.57,0,0,0-.53,3.13,8.82,8.82,0,0,0,.63,3.31,9.7,9.7,0,0,0,1.74,2.8,8.35,8.35,0,0,0,2.58,1.94A7.14,7.14,0,0,0,129.22,178.07Z" transform="translate(-52.57 -21.68)" fill="#333"/><path d="M152.7,160.76a7.22,7.22,0,0,0-4.52,1.7,8.37,8.37,0,0,0-2.64,4.35v11.61h-.71V160.05h.71v4.74a9.21,9.21,0,0,1,2.57-3.2,6.74,6.74,0,0,1,3.42-1.47l.65-.05a5,5,0,0,1,.52,0Z" transform="translate(-52.57 -21.68)" fill="#333"/><path d="M162.15,178.78a6.28,6.28,0,0,1-2.34-.44,6,6,0,0,1-1.89-1.21,5.58,5.58,0,0,1-1.26-1.79,5.21,5.21,0,0,1-.46-2.19,4.11,4.11,0,0,1,.55-2.12,5,5,0,0,1,1.56-1.65,8,8,0,0,1,2.41-1.08,11.34,11.34,0,0,1,3.06-.39,20.86,20.86,0,0,1,3.22.26,15.54,15.54,0,0,1,2.94.77v-2.09a7.47,7.47,0,0,0-.43-2.6,5.47,5.47,0,0,0-1.22-2,5.54,5.54,0,0,0-1.91-1.3,6.49,6.49,0,0,0-2.46-.46,8,8,0,0,0-2.87.59,14.47,14.47,0,0,0-3.08,1.68l-.42-.57a11.71,11.71,0,0,1,6.37-2.4,7.55,7.55,0,0,1,2.78.49,5.62,5.62,0,0,1,2.12,1.42,6.41,6.41,0,0,1,1.35,2.23,8.47,8.47,0,0,1,.48,2.94V177c0,.47.19.71.56.71v.7a1,1,0,0,1-.49-.07,1.08,1.08,0,0,1-.57-.51,1.65,1.65,0,0,1-.21-.83v-1.7a8.4,8.4,0,0,1-3.33,2.57A11,11,0,0,1,162.15,178.78Zm0-.71a10.46,10.46,0,0,0,4.34-.88,6.57,6.57,0,0,0,2.92-2.38,2.52,2.52,0,0,0,.53-1.45v-3.65a16.94,16.94,0,0,0-6.16-1.09,11.16,11.16,0,0,0-2.82.32,7.08,7.08,0,0,0-2.16.92,4.5,4.5,0,0,0-1.39,1.43,3.48,3.48,0,0,0-.5,1.86,4.52,4.52,0,0,0,.41,1.93,4.87,4.87,0,0,0,1.11,1.57,5,5,0,0,0,1.67,1A5.53,5.53,0,0,0,162.15,178.07Z" transform="translate(-52.57 -21.68)" fill="#333"/><path d="M204.53,178.42h-.71V168.19q0-4-1.18-5.84a4.12,4.12,0,0,0-3.74-1.88,6.35,6.35,0,0,0-2.46.48,7.2,7.2,0,0,0-2.09,1.33,8.55,8.55,0,0,0-1.63,2,9.56,9.56,0,0,0-1,2.55v11.57H191V168.19c0-2.66-.39-4.62-1.17-5.86a4.07,4.07,0,0,0-3.72-1.86,6.55,6.55,0,0,0-2.42.46,7,7,0,0,0-2.09,1.3,8.35,8.35,0,0,0-1.65,2,9.92,9.92,0,0,0-1.09,2.58v11.61h-.71V160.05h.71v4.74a9.72,9.72,0,0,1,3.06-3.71,6.84,6.84,0,0,1,4.05-1.31,5.26,5.26,0,0,1,3.83,1.45,6.25,6.25,0,0,1,1.77,3.89q2.76-5.34,7.36-5.34a4.76,4.76,0,0,1,4.25,2.07q1.38,2.07,1.38,6.35Z" transform="translate(-52.57 -21.68)" fill="#333"/></svg>